# xmcd CD database file
#
# Track frame offsets:
#        150
#        17221
#        41923
#        64273
#        80594
#        91820
#        103588
#        122579
#        132441
#        150184
#        161232
#        170828
#        181173
#        187567
#        201730
#        214333
#        225199
#        235528
#        245862
#        260920
#
# Disc length: 3661 seconds
#
# Revision: 0
# Processed by: cddbd v1.5.2PL0 Copyright (c) Steve Scherf et al.
# Submitted via: CUERipper 2.1.6
#
DISCID=170e4b14
DTITLE=Eric Clapton - Guitar Legend - the very Best of the Early Years
DYEAR=2016
DGENRE=Rock
TTITLE0=The Yardbirds - Too Much Monkey Business (Live at Marquee)
TTITLE1=The Yardbirds - Smokestack Lightning (Live at Marqee)
TTITLE2=The Yardbirds - Five Long Years (Live at Marqee)
TTITLE3=The Yardbirds - Louise (Live at Marqee)
TTITLE4=The Yardbirds - For Your Love (Studio Orig.)
TTITLE5=The Yardbirds - Go to Hurry (Studio Orig.)
TTITLE6=The Yardbirds and Sonny Boy Williams - Take it Easy Baby (Live at Crawdaddy Club)
TTITLE7=Clapton and John Mayall's Bluesbreakers - I'm Your Witchdoctor (Studio 7" Single)
TTITLE8=Clapton and John Mayall's Bluesbreakers - Telephone Blues (Studio 7" Single B-Side)
TTITLE9=Snake Drive (Studio Orig.)
TTITLE10=Tribute to Elmore (Studio Orig.)
TTITLE11=West Coast Idea (Studio Orig.)
TTITLE12=Eric Clapton and Jimmy Page - Choke (Studio Orig.)
TTITLE13=Eric Clapton and Jimmi Page - Draggin' my Tail (Studio Orig.)
TTITLE14=Eric Clapton and Jimmi Page - Freight Loader (Studio Orig.)
TTITLE15=Eric Clapton and Jimmi Page - Miles Road (Studio Orig.)
TTITLE16=The Yardbirds - Wish You Would (Demo)
TTITLE17=The Yardbirds - A Certain Girl (Demo)
TTITLE18=The Yardbirds - Good Morning Little Schoolgirl (Studio Alternate 1)
TTITLE19=The Yardbirds - Good Morning Little Schoolgirl (Studio Alternate 2)
EXTD=
EXTT0=
EXTT1=
EXTT2=
EXTT3=
EXTT4=
EXTT5=
EXTT6=
EXTT7=
EXTT8=
EXTT9=
EXTT10=
EXTT11=
EXTT12=
EXTT13=
EXTT14=
EXTT15=
EXTT16=
EXTT17=
EXTT18=
EXTT19=
PLAYORDER=
